<svg xmlns="http://www.w3.org/2000/svg" width="32" height="32" fill="none" viewBox="0 0 32 32">
  <circle cx="16" cy="16" r="13.33" fill="#fff"/>
  <path fill="#0A1F43" d="M17.11 4.92v2.25a8.88 8.88 0 0 1 0 17.64v2.22a11.08 11.08 0 0 0 9.94-12.14 11.09 11.09 0 0 0-9.94-9.97Zm-2.22.04A10.92 10.92 0 0 0 8.97 7.4l1.58 1.64a8.88 8.88 0 0 1 4.34-1.86V4.96Zm-7.5 4a10.98 10.98 0 0 0-2.45 5.93h2.23a8.9 8.9 0 0 1 1.82-4.33l-1.6-1.6Zm12.5 3.15-5.42 5.42-2.36-2.35-1.18 1.18 3.54 3.53 6.6-6.6-1.18-1.18Zm-14.94 5a11.16 11.16 0 0 0 2.46 5.92l1.58-1.59a8.9 8.9 0 0 1-1.81-4.33H4.95Zm5.6 5.97L8.97 24.6a11.1 11.1 0 0 0 5.92 2.51V24.9a8.9 8.9 0 0 1-4.34-1.81Z"/>
</svg>
