<svg xmlns="http://www.w3.org/2000/svg" width="32" height="32" fill="none" viewBox="0 0 32 32">
  <path fill="#fff" d="M16 20.67a4.67 4.67 0 1 1 0-9.34 4.67 4.67 0 0 1 0 9.34Zm9.9-3.38a10.37 10.37 0 0 0 0-2.62l2.82-2.18c.25-.2.32-.56.16-.85l-2.67-4.61a.66.66 0 0 0-.81-.3l-3.32 1.34a9.66 9.66 0 0 0-2.25-1.31l-.5-3.53a.67.67 0 0 0-.66-.56h-5.34a.67.67 0 0 0-.66.56l-.5 3.53c-.84.33-1.56.79-2.25 1.3L6.6 6.74a.66.66 0 0 0-.81.3l-2.67 4.61c-.17.3-.1.65.16.85l2.81 2.18a10.36 10.36 0 0 0 0 2.63l-2.81 2.2a.66.66 0 0 0-.16.86l2.67 4.61c.16.3.52.4.81.3l3.32-1.35c.7.53 1.41.99 2.25 1.32l.5 3.53c.05.32.33.56.66.56h5.34c.33 0 .61-.24.66-.56l.5-3.53a9.7 9.7 0 0 0 2.25-1.32l3.32 1.35c.3.1.65 0 .81-.3l2.67-4.61c.16-.3.1-.65-.16-.85l-2.81-2.22Z"/>
</svg>
