<svg xmlns="http://www.w3.org/2000/svg" width="32" height="32" fill="none" viewBox="0 0 32 32">
  <path fill="#fff" d="M29 21.18a6.82 6.82 0 0 1-6.82 6.81v-1.7a5.1 5.1 0 0 0 5.12-5.11H29ZM4 9.82A6.82 6.82 0 0 1 10.83 3v1.7a5.1 5.1 0 0 0-5.11 5.12h-1.7Zm7.96-3.05L6.74 12A9.38 9.38 0 0 0 20 25.26l8.03-8.06a1.4 1.4 0 0 0 0-1.99 1.42 1.42 0 0 0-2 0L21 20.23l-.8-.8L27.63 12c.55-.56.55-1.46 0-2.01a1.45 1.45 0 0 0-2.04 0L19 16.63l-.78-.83L26 7.98a1.42 1.42 0 1 0-2-2.01l-7.84 7.82-.8-.8 6.25-6.22a1.4 1.4 0 0 0 0-2 1.42 1.42 0 0 0-2.02 0l-8.65 8.65a4.55 4.55 0 0 1-.38 6l-.8-.81a3.4 3.4 0 0 0 0-4.82l-.4-.4 4.62-4.62a1.4 1.4 0 0 0 0-2 1.46 1.46 0 0 0-2.03 0Z"/>
</svg>
