<svg xmlns="http://www.w3.org/2000/svg" width="32" height="32" fill="none" viewBox="0 0 32 32">
  <path fill="#fff" d="M26.67 2.67H5.33a2.67 2.67 0 0 0-2.66 2.66v16c0 .71.28 1.39.78 1.88.5.51 1.18.79 1.88.79h5.34L16 29.33 21.33 24h5.34a2.7 2.7 0 0 0 2.67-2.67v-16c0-.7-.29-1.38-.8-1.88a2.63 2.63 0 0 0-1.87-.78ZM13.4 8.05a5.05 5.05 0 0 1 2.85-.72c1.26 0 2.26.28 2.98.83a2.7 2.7 0 0 1 .49 3.84c-.39.48-.9.85-1.5 1.13-.35.2-.58.4-.7.63a2 2 0 0 0-.19.9h-2.66c0-.66.13-1.11.38-1.43.28-.32.74-.7 1.43-1.12.35-.19.63-.43.85-.72.19-.28.3-.62.3-.99 0-.4-.12-.7-.36-.92-.24-.24-.6-.35-1.02-.35-.36 0-.65.1-.92.28-.21.19-.34.47-.34.84h-2.63c-.07-.92.3-1.72 1.04-2.2Zm1.27 10.62V16h2.66v2.67h-2.66Z"/>
</svg>
