<svg xmlns="http://www.w3.org/2000/svg" width="32" height="32" fill="none" viewBox="0 0 32 32">
  <path fill="#fff" d="M28 2.67H4a2.67 2.67 0 0 0-2.67 2.66v21.34c0 1.46 1.2 2.66 2.67 2.66h24c1.47 0 2.67-1.2 2.67-2.66V5.33c0-1.46-1.2-2.66-2.67-2.66Zm0 24H4V8h24v18.67Z"/>
  <path fill="#fff" d="M22.98 21.33 16.5 25v-2.86l4.04-2.22 2.44 1.41Zm.44-.4v-7.68l-2.37 1.36v4.95l2.37 1.37Zm-13.98.4L15.92 25v-2.85l-4.04-2.22-2.44 1.41Zm-.44-.4v-7.68l2.37 1.36v4.95L9 20.93Zm.28-8.17L15.92 9v2.76l-4.25 2.34-.04.02-2.35-1.36Zm13.86 0L16.5 9v2.76l4.25 2.35.04.02 2.35-1.37Zm-7.22 8.73-3.98-2.2v-4.33l3.98 2.3v4.23Zm.58 0 3.98-2.19v-4.34l-3.98 2.3v4.23Zm-4.3-7.03 4.01-2.2 4 2.2-4 2.3-4-2.3Z"/>
</svg>
