<svg xmlns="http://www.w3.org/2000/svg" width="96" height="96" fill="none" viewBox="0 0 96 96">
  <path fill="url(#brand_gradient)" d="M79.42 40.85a8.65 8.65 0 0 0-.38-1.88 10.77 10.77 0 0 0-.73-1.76 8.8 8.8 0 0 0-1.06-1.6 8.94 8.94 0 0 0-2.13-1.93 12.17 12.17 0 0 0-1.69-.9 10.68 10.68 0 0 0-1.83-.55 9.85 9.85 0 0 0-8.81 2.67 8.94 8.94 0 0 0-1.22 1.49 10.72 10.72 0 0 0-.9 1.68 10.77 10.77 0 0 0-.7 2.78 8.8 8.8 0 0 0 0 1.8l-3.28-5.71a9.77 9.77 0 0 0-18.2 5.6l-3.25-5.64a9.77 9.77 0 1 0-16.94 9.74l7.06 12.28a9.76 9.76 0 0 0 18.2-5.6l3.25 5.63A9.76 9.76 0 0 0 64 49.74l.27.19a9.88 9.88 0 0 0 5.42 1.65 11.1 11.1 0 0 0 1.9-.2 10.77 10.77 0 0 0 1.84-.56 10.76 10.76 0 0 0 1.69-.9 8.68 8.68 0 0 0 1.48-1.2 10.34 10.34 0 0 0 1.7-2.32 9.81 9.81 0 0 0 1.11-5.55Z"/>
  <defs>
    <linearGradient id="brand_gradient" x1="17.01" x2="79.46" y1="47.92" y2="47.92" gradientUnits="userSpaceOnUse">
      <stop offset=".16" stop-color="#C127A0"/>
      <stop offset=".28" stop-color="#CD20A1"/>
      <stop offset=".59" stop-color="#E813A4"/>
      <stop offset=".76" stop-color="#F20FA6"/>
    </linearGradient>
  </defs>
</svg>
