<svg xmlns="http://www.w3.org/2000/svg" width="24" height="24" fill="none" viewBox="0 0 24 24">
  <path d="M22.98 9.47a3.08 3.08 0 0 0-.25-.98 3.42 3.42 0 0 0-1.55-1.71 3.79 3.79 0 0 0-1.28-.4 3.47 3.47 0 0 0-3.38 1.81 3.42 3.42 0 0 0-.39 1.92L14.98 8.1a3.44 3.44 0 0 0-6.42 1.97L7.42 8.08a3.44 3.44 0 1 0-5.96 3.43l2.48 4.33a3.44 3.44 0 0 0 6.41-1.98l1.15 2a3.44 3.44 0 0 0 6.06-3.25l.09.06a3.5 3.5 0 0 0 2.25.57 3.73 3.73 0 0 0 1.57-.57 3.06 3.06 0 0 0 .75-.68 4.32 4.32 0 0 0 .52-.86 3.47 3.47 0 0 0 .24-1.66Z"/>
</svg>
