<svg xmlns="http://www.w3.org/2000/svg" xmlns:xlink="http://www.w3.org/1999/xlink" width="226" height="32" fill="none" viewBox="0 0 226 32">
  <defs>
    <path id="reuse-0" fill="#fff" d="M0 0h225.72v32H0z"/>
  </defs>
  <g clip-path="url(#clip0_1949_1323)">
    <g clip-path="url(#clip1_1949_1323)">
      <path fill="#fff" d="M3.36 31.98H0V7.94h3.36v1.81a7.79 7.79 0 0 1 5.58-2.22c2.34 0 4.31.83 5.9 2.52a8.77 8.77 0 0 1 2.36 6.29 8.8 8.8 0 0 1-2.36 6.3 7.82 7.82 0 0 1-5.9 2.51 7.77 7.77 0 0 1-5.58-2.22V32v-.02Zm5.2-21.1a4.8 4.8 0 0 0-3.65 1.58c-1 1-1.49 2.3-1.49 3.87 0 1.58.5 2.85 1.49 3.9a4.86 4.86 0 0 0 3.64 1.56c1.44 0 2.67-.52 3.68-1.55a5.5 5.5 0 0 0 1.48-3.9c0-1.56-.5-2.87-1.48-3.88a4.86 4.86 0 0 0-3.68-1.58Zm28.32 6.68H22.94c.26 1.31.9 2.38 1.92 3.21a5.57 5.57 0 0 0 3.63 1.25c1.9 0 3.38-.7 4.45-2.1l3.3 1a8.33 8.33 0 0 1-3.22 3.1 9.24 9.24 0 0 1-4.53 1.13 8.77 8.77 0 0 1-6.42-2.52 8.42 8.42 0 0 1-2.59-6.3c0-2.52.84-4.59 2.5-6.29a8.5 8.5 0 0 1 6.25-2.52c2.5 0 4.56.84 6.2 2.52a8.54 8.54 0 0 1 2.52 6.3l-.07 1.22Zm-13.9-2.68h10.51a5.41 5.41 0 0 0-5.35-4.22 4.9 4.9 0 0 0-3.28 1.18 5.5 5.5 0 0 0-1.9 3.04h.01Zm20.07-6.94v2.46c1.27-1.92 3.26-2.87 5.97-2.87v3.74a3.55 3.55 0 0 0-1.45-.26c-1.3 0-2.37.42-3.23 1.26a4.04 4.04 0 0 0-1.29 3.1v9.36h-3.36V7.94h3.36Zm20.14 3.84-3.16.55c-.39-1.25-1.49-1.88-3.3-1.88-.81 0-1.48.16-2 .49a1.5 1.5 0 0 0-.77 1.32c0 .73.54 1.3 1.61 1.68l3.78 1.29a7.54 7.54 0 0 1 3.14 1.97c.66.77.99 1.73.99 2.87a4.4 4.4 0 0 1-1.78 3.74 7.64 7.64 0 0 1-4.67 1.32 7.77 7.77 0 0 1-4.62-1.24 4.99 4.99 0 0 1-2.13-3.44l3.16-.48c.15.67.55 1.2 1.2 1.61.64.4 1.46.61 2.45.61a4.3 4.3 0 0 0 2.27-.54c.6-.37.89-.86.89-1.49 0-.8-.68-1.43-2.04-1.93l-3.74-1.26a6.28 6.28 0 0 1-2.85-1.75 4 4 0 0 1-.89-2.7c0-1.62.57-2.85 1.71-3.72A7.38 7.38 0 0 1 57 7.5c1.7 0 3.1.4 4.2 1.15 1.1.77 1.76 1.8 2 3.12Zm11.16 13.36a8.54 8.54 0 0 1-6.3-2.52 8.54 8.54 0 0 1-2.51-6.3c0-2.51.84-4.6 2.52-6.29a8.54 8.54 0 0 1 6.3-2.52c2.51 0 4.6.84 6.29 2.52a8.48 8.48 0 0 1 2.55 6.3c0 2.52-.85 4.61-2.55 6.3a8.54 8.54 0 0 1-6.3 2.51Zm0-3.35c1.55 0 2.82-.52 3.81-1.55a5.36 5.36 0 0 0 1.55-3.9c0-1.56-.52-2.84-1.55-3.88a5 5 0 0 0-3.8-1.58c-1.56 0-2.78.53-3.81 1.58a5.4 5.4 0 0 0-1.52 3.87c0 1.53.5 2.83 1.52 3.9a5.18 5.18 0 0 0 3.8 1.56Zm11.75 2.93V7.94h3.36v2.46c1.22-1.92 3.06-2.87 5.52-2.87a6.47 6.47 0 0 1 6.68 6.58v10.61H98.3v-9.65a4.25 4.25 0 0 0-4.32-4.36 4.5 4.5 0 0 0-3.23 1.26 4.2 4.2 0 0 0-1.3 3.13v9.62H86.1Zm26.69-17.2a7.8 7.8 0 0 1 5.58 2.22v-1.8h3.35v16.78h-3.35v-1.8a7.79 7.79 0 0 1-5.58 2.22 7.8 7.8 0 0 1-5.9-2.52 8.77 8.77 0 0 1-2.36-6.3 8.8 8.8 0 0 1 2.35-6.3 7.82 7.82 0 0 1 5.9-2.51v.01Zm.35 3.36a4.8 4.8 0 0 0-3.64 1.58c-1 1-1.48 2.3-1.48 3.87 0 1.58.5 2.85 1.48 3.9a4.92 4.92 0 0 0 3.64 1.56c1.43 0 2.7-.52 3.68-1.55a5.5 5.5 0 0 0 1.49-3.9c0-1.56-.5-2.87-1.49-3.88a4.86 4.86 0 0 0-3.68-1.58Zm15.72 13.84h-3.36V.52h3.36v24.2Zm3.87-19.26c-.4-.43-.61-.96-.61-1.59 0-.62.2-1.14.6-1.58a2.2 2.2 0 0 1 1.6-.65 2.19 2.19 0 0 1 2.22 2.23c0 .63-.22 1.15-.64 1.59-.43.43-.96.64-1.59.64-.62 0-1.15-.21-1.58-.64Zm3.26 19.26h-3.36V7.94H136v16.78Zm2.84 0v-2.54l9.07-11.14h-8.91v-3.1h13.52v2.55l-9.1 11.13h9.26v3.1h-13.84Zm32.47-7.16h-13.95c.25 1.31.9 2.38 1.92 3.21a5.57 5.57 0 0 0 3.63 1.25 5.3 5.3 0 0 0 4.45-2.1l3.29 1a8.34 8.34 0 0 1-3.21 3.1 9.24 9.24 0 0 1-4.53 1.13 8.77 8.77 0 0 1-6.43-2.52 8.42 8.42 0 0 1-2.58-6.3c0-2.52.83-4.59 2.49-6.29a8.5 8.5 0 0 1 6.26-2.52c2.5 0 4.56.84 6.2 2.52a8.54 8.54 0 0 1 2.51 6.3l-.06 1.22Zm-13.92-2.68h10.52a5.41 5.41 0 0 0-5.36-4.22 4.9 4.9 0 0 0-3.27 1.18 5.5 5.5 0 0 0-1.9 3.04h.01Z"/>
      <path fill="url(#paint0_linear_1949_1323)" d="M225.56 7.07a6.87 6.87 0 0 0-.3-1.5 8.37 8.37 0 0 0-.97-2.06 7.56 7.56 0 0 0-2.82-2.56 8.54 8.54 0 0 0-2.9-.88 7.88 7.88 0 0 0-6.3 2.25 7.3 7.3 0 0 0-1.37 1.84 7.77 7.77 0 0 0-.89 4.36l-2.62-4.57a7.8 7.8 0 0 0-14.56 4.48l-2.59-4.51a7.8 7.8 0 1 0-13.54 7.79l5.64 9.81a7.8 7.8 0 0 0 14.56-4.48l2.59 4.51a7.8 7.8 0 0 0 13.76-7.37l.21.15a7.9 7.9 0 0 0 5.1 1.29 8.41 8.41 0 0 0 2.92-.9 7.9 7.9 0 0 0 3.98-5.35 6.64 6.64 0 0 0 .15-1.53c0-.25-.01-.52-.04-.77Z"/>
    </g>
  </g>
  <defs>
    <clipPath id="clip0_1949_1323">
      <use xlink:href="#reuse-0"/>
    </clipPath>
    <clipPath id="clip1_1949_1323">
      <use xlink:href="#reuse-0"/>
    </clipPath>
    <linearGradient id="paint0_linear_1949_1323" x1="175.66" x2="225.6" y1="12.73" y2="12.73" gradientUnits="userSpaceOnUse">
      <stop offset=".16" stop-color="#C127A0"/>
      <stop offset=".28" stop-color="#CD20A1"/>
      <stop offset=".59" stop-color="#E813A4"/>
      <stop offset=".76" stop-color="#F20FA6"/>
    </linearGradient>
  </defs>
</svg>
