<svg xmlns="http://www.w3.org/2000/svg" width="34" height="18" fill="none" viewBox="0 0 34 18">
  <path fill="url(#pwp_gradiant)" d="M33.12 4.7a5.55 5.55 0 0 0-.84-2.36A5.02 5.02 0 0 0 30.4.63a5.94 5.94 0 0 0-1.93-.6 5.23 5.23 0 0 0-5.09 2.72c-.48.89-.68 1.9-.6 2.9l-1.73-3.04A5.18 5.18 0 0 0 11.4 5.6l-1.72-3A5.18 5.18 0 1 0 .69 7.77l3.74 6.52a5.18 5.18 0 0 0 9.67-2.98l1.72 3a5.18 5.18 0 0 0 9.13-4.9l.14.1c1 .67 2.2.97 3.38.86a5.24 5.24 0 0 0 4.65-5.67Z"/>
  <defs>
    <linearGradient id="pwp_gradiant" x1="0" x2="33.15" y1="8.45" y2="8.45" gradientUnits="userSpaceOnUse">
      <stop offset=".16" stop-color="#C127A0"/>
      <stop offset=".28" stop-color="#CD20A1"/>
      <stop offset=".59" stop-color="#E813A4"/>
      <stop offset=".76" stop-color="#F20FA6"/>
    </linearGradient>
  </defs>
</svg>
